<?xml version="1.0" encoding="utf-8"?>
<!-- Generator: Adobe Illustrator 21.1.0, SVG Export Plug-In . SVG Version: 6.00 Build 0)  -->
<svg version="1.1" id="Calque_1" xmlns="http://www.w3.org/2000/svg" xmlns:xlink="http://www.w3.org/1999/xlink" x="0px" y="0px"
	 viewBox="0 0 100 91.3" style="enable-background:new 0 0 100 91.3;" xml:space="preserve">
<style type="text/css">
	.st0{fill:#FFFFFF;}
</style>
<g>
	<path class="st0" d="M54.4,2.7C30.6,2.7,11.3,22,11.3,45.8v1.4H5.6c-2.4,0-3.9,2.6-2.7,4.7l9.7,16.3c1.2,2,4.2,2,5.4,0l9.7-16.3
		c1.2-2.1-0.3-4.7-2.7-4.7h-5.6v-1.4c0-19.3,15.7-34.9,34.9-34.9c19.3,0,34.9,15.7,34.9,34.9c0,19.3-15.7,34.9-34.9,34.9
		c-7.6,0-14.8-2.4-20.9-7c-1.8-1.4-4.4-1-5.7,0.8c-1.4,1.8-1,4.4,0.8,5.7c7.5,5.6,16.4,8.6,25.8,8.6c23.8,0,43.1-19.3,43.1-43.1
		S78.2,2.7,54.4,2.7z"/>
	<path class="st0" d="M54.4,19c-2.3,0-4.1,1.8-4.1,4.1v22.7c0,2.3,1.8,4.1,4.1,4.1h13.9c2.3,0,4.1-1.8,4.1-4.1s-1.8-4.1-4.1-4.1
		h-9.8V23.1C58.5,20.9,56.6,19,54.4,19z"/>
</g>
</svg>
