<?xml version="1.0" encoding="utf-8"?>
<!-- Generator: Adobe Illustrator 21.1.0, SVG Export Plug-In . SVG Version: 6.00 Build 0)  -->
<svg version="1.1" id="Calque_1" xmlns="http://www.w3.org/2000/svg" xmlns:xlink="http://www.w3.org/1999/xlink" x="0px" y="0px"
	 viewBox="0 0 32 32" style="enable-background:new 0 0 32 32;" xml:space="preserve">
<title>plus-circle</title>
<path d="M8,14.9C8,14.9,8,14.9,8,14.9c-0.6,0-1.2,0.5-1.2,1.1c0,0.6,0.5,1.1,1.1,1.1c0,0,0,0,0,0h16c0,0,0,0,0,0
	c0.6,0,1.1-0.5,1.1-1.1c0-0.6-0.5-1.1-1.1-1.1c0,0,0,0,0,0H8z"/>
<path d="M17.1,8C17.1,8,17.1,8,17.1,8c0-0.6-0.5-1.2-1.1-1.2S14.9,7.4,14.9,8c0,0,0,0,0,0v0v16c0,0,0,0,0,0c0,0.6,0.5,1.1,1.1,1.1
	s1.1-0.5,1.1-1.1c0,0,0,0,0,0v0V8z"/>
<path d="M16,0C7.2,0,0,7.2,0,16s7.2,16,16,16c8.8,0,16-7.2,16-16S24.8,0,16,0z M16,2.3c7.6,0,13.7,6.1,13.7,13.7S23.6,29.7,16,29.7
	S2.3,23.6,2.3,16S8.4,2.3,16,2.3z"/>
</svg>
