<?xml version="1.0" encoding="utf-8"?>
<!-- Generator: Adobe Illustrator 21.1.0, SVG Export Plug-In . SVG Version: 6.00 Build 0)  -->
<svg version="1.1" id="Calque_1" xmlns="http://www.w3.org/2000/svg" xmlns:xlink="http://www.w3.org/1999/xlink" x="0px" y="0px"
	 viewBox="0 0 23.3 23.9" style="enable-background:new 0 0 23.3 23.9;" xml:space="preserve">
<title>search2</title>
<path d="M14.4,16.6c-1.4,1-3.1,1.6-4.9,1.6C4.8,18.2,1,14.4,1,9.7s3.8-8.5,8.5-8.5S18,5,18,9.7c0,1.8-0.6,3.5-1.6,4.9l5.6,5.6
	c0.5,0.5,0.5,1.4,0,2l0,0c-0.5,0.5-1.4,0.5-2,0L14.4,16.6L14.4,16.6z M9.5,16.2c3.6,0,6.5-2.9,6.5-6.5s-2.9-6.5-6.5-6.5S3,6.1,3,9.7
	S5.9,16.2,9.5,16.2L9.5,16.2z"/>
</svg>
