<?xml version="1.0" encoding="utf-8"?>
<!-- Generator: Adobe Illustrator 21.1.0, SVG Export Plug-In . SVG Version: 6.00 Build 0)  -->
<svg version="1.1" id="Calque_1" xmlns="http://www.w3.org/2000/svg" xmlns:xlink="http://www.w3.org/1999/xlink" x="0px" y="0px"
	 viewBox="0 0 58 53" style="enable-background:new 0 0 58 53;" xml:space="preserve">
<style type="text/css">
	.st0{fill:#FFFFFF;}
</style>
<title>setting</title>
<path class="st0" d="M29,16.4c-5.5,0-10,4.5-10,10s4.5,10,10,10s10-4.5,10-10S34.5,16.4,29,16.4z M29,32.4c-3.3,0-6-2.7-6-6
	s2.7-6,6-6s6,2.7,6,6S32.3,32.4,29,32.4z"/>
<path class="st0" d="M54.8,22.4L44.8,6.1c-1.4-2.3-3.9-3.7-6.6-3.6H19.8c-2.7,0-5.2,1.4-6.6,3.6L3.2,22.4c-1.5,2.5-1.5,5.6,0,8.1
	l10.1,16.3c1.4,2.3,3.9,3.6,6.6,3.6h18.4c2.7,0,5.2-1.4,6.5-3.7l10.1-16.3C56.4,28,56.4,24.9,54.8,22.4z M51.4,28.4L41.4,44.7
	c-0.7,1.1-1.9,1.8-3.1,1.8H19.8c-1.3,0-2.5-0.7-3.1-1.8L6.6,28.4c-0.7-1.2-0.7-2.7,0-3.9L16.6,8.2c0.7-1.1,1.9-1.8,3.2-1.8h18.4
	c1.3,0,2.5,0.7,3.2,1.8l10.1,16.3C52.2,25.7,52.2,27.2,51.4,28.4L51.4,28.4z"/>
</svg>
